<?xml version="1.0" encoding="utf-8"?>
<!-- Generated by IcoMoon.io -->
<!DOCTYPE svg PUBLIC "-//W3C//DTD SVG 1.1//EN" "http://www.w3.org/Graphics/SVG/1.1/DTD/svg11.dtd">
<svg version="1.1" xmlns="http://www.w3.org/2000/svg" xmlns:xlink="http://www.w3.org/1999/xlink" width="1024" height="1024" viewBox="0 0 1024 1024">
<g id="icomoon-ignore">
</g>
<path d="M92 496h48c13.255 0 24 10.745 24 24v20c0 13.255-10.745 24-24 24h-48c-13.255 0-24-10.745-24-24v-20c0-13.255 10.745-24 24-24zM92 612h48c13.255 0 24 10.745 24 24v20c0 13.255-10.745 24-24 24h-48c-13.255 0-24-10.745-24-24v-20c0-13.255 10.745-24 24-24zM92 728h48c13.255 0 24 10.745 24 24v20c0 13.255-10.745 24-24 24h-48c-13.255 0-24-10.745-24-24v-20c0-13.255 10.745-24 24-24zM92 380h48c13.255 0 24 10.745 24 24v20c0 13.255-10.745 24-24 24h-48c-13.255 0-24-10.745-24-24v-20c0-13.255 10.745-24 24-24zM92 264h48c13.255 0 24 10.745 24 24v20c0 13.255-10.745 24-24 24h-48c-13.255 0-24-10.745-24-24v-20c0-13.255 10.745-24 24-24zM932 496h-48c-13.255 0-24 10.745-24 24v20c0 13.255 10.745 24 24 24h48c13.255 0 24-10.745 24-24v-20c0-13.255-10.745-24-24-24zM932 612h-48c-13.255 0-24 10.745-24 24v20c0 13.255 10.745 24 24 24h48c13.255 0 24-10.745 24-24v-20c0-13.255-10.745-24-24-24zM932 728h-48c-13.255 0-24 10.745-24 24v20c0 13.255 10.745 24 24 24h48c13.255 0 24-10.745 24-24v-20c0-13.255-10.745-24-24-24zM932 380h-48c-13.255 0-24 10.745-24 24v20c0 13.255 10.745 24 24 24h48c13.255 0 24-10.745 24-24v-20c0-13.255-10.745-24-24-24zM932 264h-48c-13.255 0-24 10.745-24 24v20c0 13.255 10.745 24 24 24h48c13.255 0 24-10.745 24-24v-20c0-13.255-10.745-24-24-24zM478 950v-48c0-13.255 10.745-24 24-24h20c13.255 0 24 10.745 24 24v48c0 13.255-10.745 24-24 24h-20c-13.255 0-24-10.745-24-24zM594 950v-48c0-13.255 10.745-24 24-24h20c13.255 0 24 10.745 24 24v48c0 13.255-10.745 24-24 24h-20c-13.255 0-24-10.745-24-24zM710 950v-48c0-13.255 10.745-24 24-24h20c13.255 0 24 10.745 24 24v48c0 13.255-10.745 24-24 24h-20c-13.255 0-24-10.745-24-24zM362 950v-48c0-13.255 10.745-24 24-24h20c13.255 0 24 10.745 24 24v48c0 13.255-10.745 24-24 24h-20c-13.255 0-24-10.745-24-24zM246 950v-48c0-13.255 10.745-24 24-24h20c13.255 0 24 10.745 24 24v48c0 13.255-10.745 24-24 24h-20c-13.255 0-24-10.745-24-24zM478 110v48c0 13.255 10.745 24 24 24h20c13.255 0 24-10.745 24-24v-48c0-13.255-10.745-24-24-24h-20c-13.255 0-24 10.745-24 24zM594 110v48c0 13.255 10.745 24 24 24h20c13.255 0 24-10.745 24-24v-48c0-13.255-10.745-24-24-24h-20c-13.255 0-24 10.745-24 24zM710 110v48c0 13.255 10.745 24 24 24h20c13.255 0 24-10.745 24-24v-48c0-13.255-10.745-24-24-24h-20c-13.255 0-24 10.745-24 24zM362 110v48c0 13.255 10.745 24 24 24h20c13.255 0 24-10.745 24-24v-48c0-13.255-10.745-24-24-24h-20c-13.255 0-24 10.745-24 24zM246 110v48c0 13.255 10.745 24 24 24h20c13.255 0 24-10.745 24-24v-48c0-13.255-10.745-24-24-24h-20c-13.255 0-24 10.745-24 24zM164 182v696h696v-696h-696zM194 214h636v636h-636v-636zM360 298h304c44.183 0 80 35.817 80 80v304c0 44.183-35.817 80-80 80h-304c-44.183 0-80-35.817-80-80v-304c0-44.183 35.817-80 80-80z"></path>
</svg>
